<svg xmlns="http://www.w3.org/2000/svg">
    <symbol id="menu" viewBox="0 0 24 24">
        <path d="m5 0h-4c-.552 0-1 .448-1 1v4c0 .552.448 1 1 1h4c.552 0 1-.448 1-1v-4c0-.552-.448-1-1-1z"/>
        <path d="m5 9h-4c-.552 0-1 .448-1 1v4c0 .552.448 1 1 1h4c.552 0 1-.448 1-1v-4c0-.552-.448-1-1-1z"/>
        <path d="m5 18h-4c-.552 0-1 .448-1 1v4c0 .552.448 1 1 1h4c.552 0 1-.448 1-1v-4c0-.552-.448-1-1-1z"/>
        <path d="m14 0h-4c-.552 0-1 .448-1 1v4c0 .552.448 1 1 1h4c.552 0 1-.448 1-1v-4c0-.552-.448-1-1-1z"/>
        <path d="m14 9h-4c-.552 0-1 .448-1 1v4c0 .552.448 1 1 1h4c.552 0 1-.448 1-1v-4c0-.552-.448-1-1-1z"/>
        <path d="m14 18h-4c-.552 0-1 .448-1 1v4c0 .552.448 1 1 1h4c.552 0 1-.448 1-1v-4c0-.552-.448-1-1-1z"/>
        <path d="m23 0h-4c-.552 0-1 .448-1 1v4c0 .552.448 1 1 1h4c.552 0 1-.448 1-1v-4c0-.552-.448-1-1-1z"/>
        <path d="m23 9h-4c-.552 0-1 .448-1 1v4c0 .552.448 1 1 1h4c.552 0 1-.448 1-1v-4c0-.552-.448-1-1-1z"/>
        <path d="m23 18h-4c-.552 0-1 .448-1 1v4c0 .552.448 1 1 1h4c.552 0 1-.448 1-1v-4c0-.552-.448-1-1-1z"/>
    </symbol>

    <symbol id="home" viewBox="0 0 460.298 460.297">
        <path d="M230.149,120.939L65.986,256.274c0,0.191-0.048,0.472-0.144,0.855c-0.094,0.38-0.144,0.656-0.144,0.852v137.041
			c0,4.948,1.809,9.236,5.426,12.847c3.616,3.613,7.898,5.431,12.847,5.431h109.63V303.664h73.097v109.64h109.629
			c4.948,0,9.236-1.814,12.847-5.435c3.617-3.607,5.432-7.898,5.432-12.847V257.981c0-0.76-0.104-1.334-0.288-1.707L230.149,120.939
			z"/>
        <path d="M457.122,225.438L394.6,173.476V56.989c0-2.663-0.856-4.853-2.574-6.567c-1.704-1.712-3.894-2.568-6.563-2.568h-54.816
			c-2.666,0-4.855,0.856-6.57,2.568c-1.711,1.714-2.566,3.905-2.566,6.567v55.673l-69.662-58.245
			c-6.084-4.949-13.318-7.423-21.694-7.423c-8.375,0-15.608,2.474-21.698,7.423L3.172,225.438c-1.903,1.52-2.946,3.566-3.14,6.136
			c-0.193,2.568,0.472,4.811,1.997,6.713l17.701,21.128c1.525,1.712,3.521,2.759,5.996,3.142c2.285,0.192,4.57-0.476,6.855-1.998
			L230.149,95.817l197.57,164.741c1.526,1.328,3.521,1.991,5.996,1.991h0.858c2.471-0.376,4.463-1.43,5.996-3.138l17.703-21.125
			c1.522-1.906,2.189-4.145,1.991-6.716C460.068,229.007,459.021,226.961,457.122,225.438z"/>
    </symbol>

    <symbol id="info" viewBox="0 0 24 24">
        <path d="m4 6.75c0-2.619 2.131-4.75 4.75-4.75h9.133c-.329-1.151-1.378-2-2.633-2h-11.5c-1.517 0-2.75 1.233-2.75 2.75v15.5c0 1.517 1.233 2.75 2.75 2.75h.25z"/>
        <path d="m20.25 4h-11.5c-1.517 0-2.75 1.233-2.75 2.75v14.5c0 1.517 1.233 2.75 2.75 2.75h11.5c1.517 0 2.75-1.233 2.75-2.75v-14.5c0-1.517-1.233-2.75-2.75-2.75zm-2 17h-7.5c-.414 0-.75-.336-.75-.75s.336-.75.75-.75h7.5c.414 0 .75.336.75.75s-.336.75-.75.75zm0-4h-7.5c-.414 0-.75-.336-.75-.75s.336-.75.75-.75h7.5c.414 0 .75.336.75.75s-.336.75-.75.75zm0-3.5h-7.5c-.414 0-.75-.336-.75-.75s.336-.75.75-.75h7.5c.414 0 .75.336.75.75s-.336.75-.75.75zm0-4h-7.5c-.414 0-.75-.336-.75-.75s.336-.75.75-.75h7.5c.414 0 .75.336.75.75s-.336.75-.75.75z"/>
    </symbol>

    <symbol id="details" viewBox="-21 -47 682.66669 682">
        <path d="m552.011719-1.332031h-464.023438c-48.515625 0-87.988281 39.472656-87.988281 87.988281v283.972656c0 48.421875 39.300781 87.824219 87.675781 87.988282v128.871093l185.183594-128.859375h279.152344c48.515625 0 87.988281-39.472656 87.988281-88v-283.972656c0-48.515625-39.472656-87.988281-87.988281-87.988281zm-83.308594 330.011719h-297.40625v-37.5h297.40625zm0-80h-297.40625v-37.5h297.40625zm0-80h-297.40625v-37.5h297.40625zm0 0"/>
    </symbol>

    <symbol id="exclamation-mark" viewBox="0 0 286.054 286.054">
        <path style="fill:#E2574C;" d="M143.027,0C64.04,0,0,64.04,0,143.027c0,78.996,64.04,143.027,143.027,143.027
            c78.996,0,143.027-64.022,143.027-143.027C286.054,64.04,222.022,0,143.027,0z M143.027,259.236
            c-64.183,0-116.209-52.026-116.209-116.209S78.844,26.818,143.027,26.818s116.209,52.026,116.209,116.209
            S207.21,259.236,143.027,259.236z M143.036,62.726c-10.244,0-17.995,5.346-17.995,13.981v79.201c0,8.644,7.75,13.972,17.995,13.972
            c9.994,0,17.995-5.551,17.995-13.972V76.707C161.03,68.277,153.03,62.726,143.036,62.726z M143.036,187.723
            c-9.842,0-17.852,8.01-17.852,17.86c0,9.833,8.01,17.843,17.852,17.843s17.843-8.01,17.843-17.843
            C160.878,195.732,152.878,187.723,143.036,187.723z"/>
    </symbol>

    <symbol id="add" viewBox="0 0 512 512">
        <path d="m256 512c-141.164062 0-256-114.835938-256-256s114.835938-256 256-256 256 114.835938 256 256-114.835938 256-256 256zm0-480c-123.519531 0-224 100.480469-224 224s100.480469 224 224 224 224-100.480469 224-224-100.480469-224-224-224zm0 0"/>
        <path d="m368 272h-224c-8.832031 0-16-7.167969-16-16s7.167969-16 16-16h224c8.832031 0 16 7.167969 16 16s-7.167969 16-16 16zm0 0"/>
        <path d="m256 384c-8.832031 0-16-7.167969-16-16v-224c0-8.832031 7.167969-16 16-16s16 7.167969 16 16v224c0 8.832031-7.167969 16-16 16zm0 0"/>
    </symbol>

    <symbol id="save" viewBox="0 0 512.063 512.063">
        <ellipse cx="256.032" cy="256.032" fill="#00df76" rx="255.949" ry="256.032"/>
        <path d="m256.032 0c-.116 0-.231.004-.347.004v512.055c.116 0 .231.004.347.004 141.357 0 255.949-114.629 255.949-256.032s-114.592-256.031-255.949-256.031z"
              fill="#00ab5e"/>
        <path d="m111.326 261.118 103.524 103.524c4.515 4.515 11.836 4.515 16.351 0l169.957-169.957c4.515-4.515 4.515-11.836 0-16.351l-30.935-30.935c-4.515-4.515-11.836-4.515-16.351 0l-123.617 123.615c-4.515 4.515-11.836 4.515-16.351 0l-55.397-55.397c-4.426-4.426-11.571-4.526-16.119-.226l-30.83 29.149c-4.732 4.475-4.837 11.973-.232 16.578z"
              fill="#fff5f5"/>
        <path d="m370.223 147.398c-4.515-4.515-11.836-4.515-16.351 0l-98.187 98.187v94.573l145.473-145.473c4.515-4.515 4.515-11.836 0-16.352z"
              fill="#dfebf1"/>
    </symbol>

    <symbol id="cancel" viewBox="0 0 512 512">
        <circle style="fill:#E21B1B;" cx="256" cy="256" r="256"/>
        <path style="fill:#C40606;" d="M510.28,285.304L367.912,142.936L150.248,368.608l140.928,140.928
	    C406.352,493.696,497.056,401.288,510.28,285.304z"/>
        <path style="fill:#FFFFFF;" d="M354.376,371.536c-5.12,0-10.232-1.952-14.144-5.856L146.408,171.848
		c-7.816-7.816-7.816-20.472,0-28.28s20.472-7.816,28.28,0L368.52,337.4c7.816,7.816,7.816,20.472,0,28.28
		C364.608,369.584,359.496,371.536,354.376,371.536z"/>
        <path style="fill:#FFFFFF;" d="M160.544,371.536c-5.12,0-10.232-1.952-14.144-5.856c-7.816-7.816-7.816-20.472,0-28.28
		l193.832-193.832c7.816-7.816,20.472-7.816,28.28,0s7.816,20.472,0,28.28L174.688,365.68
		C170.784,369.584,165.664,371.536,160.544,371.536z"/>
    </symbol>
</svg>